<?xml version="1.0" encoding="UTF-8"?><svg id="Capa_1" xmlns="http://www.w3.org/2000/svg" viewBox="0 0 90.71 90.71"><defs><style>.cls-1{fill:#c8c3fc;}.cls-2{fill:#6b6bff;}</style></defs><rect class="cls-1" width="90.71" height="90.71" rx="17.04" ry="17.04"/><path class="cls-2" d="M68.95,33.83c-7.83-6.13-18.23-5.95-25.69-.71-1.24.87-2.95,0-3.01-1.51-.18-4.39-2.41-8.63-6.35-11.2-6.28-4.09-14.92-2.43-19.21,3.72-4.62,6.63-2.73,15.7,4.03,19.96,4.09,2.58,8.99,2.78,13.1.99,1.37-.6,2.84.6,2.6,2.07-1.4,8.3,2.17,17.01,9.74,21.78,10.74,6.77,25.16,2.87,30.86-8.88,4.37-9,1.81-20.05-6.07-26.21Z"/></svg>